<?xml version="1.0" standalone="no"?>
<!DOCTYPE svg PUBLIC "-//W3C//DTD SVG 20010904//EN"
 "http://www.w3.org/TR/2001/REC-SVG-20010904/DTD/svg10.dtd">
<svg version="1.0" xmlns="http://www.w3.org/2000/svg"
 width="76.000000pt" height="76.000000pt" viewBox="0 0 76.000000 76.000000"
 preserveAspectRatio="xMidYMid meet">
<metadata>
Created by potrace 1.11, written by Peter Selinger 2001-2013
</metadata>
<g transform="translate(0.000000,76.000000) scale(0.100000,-0.100000)"
fill="#000000" stroke="none">
<path d="M345 520 c-18 -19 -17 -20 3 -20 15 0 22 6 22 20 0 11 -2 20 -3 20
-2 0 -12 -9 -22 -20z"/>
<path d="M380 520 c0 -15 7 -20 26 -20 27 0 25 14 -7 30 -16 9 -19 7 -19 -10z"/>
<path d="M160 481 c0 -62 60 -164 121 -207 45 -31 58 -28 31 7 -33 42 -52 87
-52 122 0 37 -27 69 -72 86 -24 9 -28 8 -28 -8z"/>
<path d="M565 484 c-55 -29 -74 -53 -68 -88 6 -37 -15 -86 -54 -128 -35 -36
-22 -51 38 -46 66 7 122 46 170 120 21 34 39 65 39 70 0 4 -13 8 -30 8 -23 0
-33 -7 -45 -30 -34 -65 -105 -128 -165 -145 -16 -4 -8 4 21 23 57 37 101 99
123 172 9 29 16 55 16 57 0 7 -16 2 -45 -13z"/>
<path d="M300 471 c-17 -33 -11 -41 31 -41 38 0 40 1 37 28 -4 34 -29 36 -40
2 -7 -24 -8 -24 -4 3 4 31 -9 36 -24 8z"/>
<path d="M387 483 c-4 -3 -7 -17 -7 -30 0 -18 5 -23 25 -23 27 0 28 3 19 38
-6 21 -24 29 -37 15z"/>
<path d="M434 468 c3 -13 6 -26 6 -30 0 -5 7 -8 15 -8 14 0 14 3 0 30 -18 35
-30 39 -21 8z"/>
<path d="M90 380 c30 -59 89 -120 135 -141 50 -23 115 -25 115 -4 0 8 -6 12
-12 10 -37 -14 -164 94 -183 156 -5 14 -16 19 -41 19 l-34 0 20 -40z"/>
<path d="M290 390 c0 -30 23 -43 33 -17 4 10 6 10 6 0 1 -7 10 -13 21 -13 16
0 20 7 20 30 0 25 -4 30 -24 30 -15 0 -26 -7 -29 -17 -4 -17 -5 -17 -6 0 -2
30 -21 18 -21 -13z"/>
<path d="M387 414 c-4 -4 -7 -18 -7 -31 0 -21 5 -23 45 -23 43 0 45 1 45 30 0
19 -5 30 -14 30 -9 0 -12 -9 -10 -27 4 -27 3 -27 -4 -3 -8 24 -40 38 -55 24z"/>
<path d="M300 345 c0 -2 5 -16 12 -30 16 -35 29 -31 17 5 -6 17 -15 30 -20 30
-5 0 -9 -2 -9 -5z"/>
<path d="M330 346 c0 -3 4 -16 10 -30 13 -35 30 -33 30 4 0 23 -4 30 -20 30
-11 0 -20 -2 -20 -4z"/>
<path d="M380 320 c0 -23 5 -30 19 -30 11 0 22 6 24 13 3 6 6 3 6 -8 1 -19 1
-19 14 0 23 34 28 55 12 55 -7 0 -16 -8 -18 -17 -4 -17 -5 -17 -6 0 -1 11 -9
17 -26 17 -21 0 -25 -5 -25 -30z"/>
<path d="M340 270 c0 -4 7 -13 15 -20 12 -10 15 -9 15 7 0 11 -7 20 -15 20 -8
0 -15 -4 -15 -7z"/>
<path d="M387 273 c-4 -3 -7 -15 -7 -26 0 -19 1 -19 20 -2 11 10 17 22 14 26
-6 11 -18 12 -27 2z"/>
</g>
</svg>
