<?xml version="1.0" encoding="UTF-8"?>
<svg width="35px" height="25px" viewBox="0 0 35 25" version="1.1" xmlns="http://www.w3.org/2000/svg" xmlns:xlink="http://www.w3.org/1999/xlink">
    <!-- Generator: sketchtool 48.1 (47250) - http://www.bohemiancoding.com/sketch -->
    <title>EB8EED1C-579F-433E-BB89-6AEAEC5D6D89</title>
    <desc>Created with sketchtool.</desc>
    <defs>
        <path d="M10.8504941,1.96604031 C10.8504941,3.06144538 11.730335,3.87983015 12.904222,3.87983015 C14.0492294,3.87983015 14.9530273,3.05062428 14.9530273,1.98737335 C14.9530273,0.931233437 14.0551366,0.101409219 12.904222,0.101409219 C11.7700443,0.101409219 10.8504941,0.935871054 10.8504941,1.96604031 Z" id="path-1"></path>
        <filter x="-24.4%" y="-26.5%" width="148.8%" height="152.9%" filterUnits="objectBoundingBox" id="filter-2">
            <feGaussianBlur stdDeviation="0.5" in="SourceAlpha" result="shadowBlurInner1"></feGaussianBlur>
            <feOffset dx="1" dy="1" in="shadowBlurInner1" result="shadowOffsetInner1"></feOffset>
            <feComposite in="shadowOffsetInner1" in2="SourceAlpha" operator="arithmetic" k2="-1" k3="1" result="shadowInnerInner1"></feComposite>
            <feColorMatrix values="0 0 0 0 0   0 0 0 0 0   0 0 0 0 0  0 0 0 0.5 0" type="matrix" in="shadowInnerInner1"></feColorMatrix>
        </filter>
    </defs>
    <g id="icons" stroke="none" stroke-width="1" fill="none" fill-rule="evenodd" transform="translate(-285.000000, -62.000000)">
        <g id="discover" transform="translate(285.000000, 62.000000)">
            <rect id="mastercard-bg" fill="#F9F9F9" x="0" y="0" width="35" height="25" rx="3.31578947"></rect>
            <path d="M35,16 C35,18.1 35,20.2 35,22.3 L35,22.3 C35,23.7911688 33.7911688,25 32.3,25 C24.8666666,25 17.4333333,25 10,25 C10,25 20.307989,22.8947535 24.9704823,21.2105224 C30.9015927,19.0680291 35,16 35,16 Z" id="shape" fill="#F58220"></path>
            <g id="discover-2" transform="translate(6.000000, 10.000000)">
                <g id="logo">
                    <g id="registered" transform="translate(23.956877, 0.167469)" fill="#231F20">
                        <path d="M0.63546181,0.296715947 C0.63546181,0.217565367 0.569958685,0.173549923 0.44899306,0.173549923 L0.289777435,0.173549923 L0.289777435,0.573549923 L0.40691806,0.573549923 L0.40691806,0.417951468 L0.545096185,0.573549923 L0.692358685,0.573549923 L0.526927435,0.408298958 C0.596733685,0.393241043 0.63546181,0.352314402 0.63546181,0.296715947 L0.63546181,0.296715947 Z M0.42891181,0.350770001 L0.40691806,0.350770001 L0.40691806,0.247681198 L0.430346185,0.247681198 C0.48819931,0.247681198 0.51784306,0.264283514 0.51784306,0.298260348 C0.51784306,0.333009383 0.486764935,0.350770001 0.42891181,0.350770001 L0.42891181,0.350770001 Z" id="r"></path>
                        <path d="M0.415140821,0.0535902376 C0.250724444,0.0535902376 0.119453883,0.177878366 0.119453883,0.333083939 C0.119453883,0.487671162 0.251380796,0.612268465 0.415140821,0.612268465 C0.576275434,0.612268465 0.707874172,0.486434465 0.707874172,0.333083939 C0.707874172,0.179733412 0.576275434,0.0535902376 0.415140821,0.0535902376 L0.415140821,0.0535902376 Z M0.414812645,0.56187303 C0.283542084,0.56187303 0.177541106,0.460463811 0.177541106,0.333702287 C0.177541106,0.205704066 0.282885731,0.104294847 0.414812645,0.104294847 C0.543129618,0.104294847 0.648146066,0.207559113 0.648146066,0.333702287 C0.648146066,0.459227113 0.543129618,0.56187303 0.414812645,0.56187303 L0.414812645,0.56187303 Z" id="Fill-12"></path>
                    </g>
                    <path d="M23.9539214,1.24040788 C23.9539214,0.5602241 23.4577187,0.169118423 22.5910048,0.169118423 L21.4758614,0.169118423 L21.4758614,3.79820809 L22.2273854,3.79820809 L22.2273854,2.33983222 L22.3258383,2.33983222 L23.3648448,3.79820809 L24.2893177,3.79820809 L23.0753932,2.26934045 C23.642482,2.16051104 23.9539214,1.79599437 23.9539214,1.24040788 L23.9539214,1.24040788 Z M22.4459509,1.83927879 L22.2273854,1.83927879 L22.2273854,0.739854454 L22.4584216,0.739854454 C22.9267293,0.739854454 23.1813942,0.925668297 23.1813942,1.27843634 C23.1813942,1.64295302 22.9267293,1.83927879 22.4459509,1.83927879 L22.4459509,1.83927879 Z" id="r" fill="#231F20"></path>
                    <polyline id="e" fill="#231F20" points="18.8488093 3.79820809 20.9799869 3.79820809 20.9799869 3.18356929 19.5996769 3.18356929 19.5996769 2.20348629 20.9274786 2.20348629 20.9274786 1.58946584 19.5996769 1.58946584 19.5996769 0.783757225 20.9799869 0.783757225 20.9799869 0.169118423 18.8488093 0.169118423 18.8488093 3.79820809"></polyline>
                    <polyline id="v" fill="#231F20" points="16.652981 2.60695894 15.6244762 0.169118423 14.8043633 0.169118423 16.4396664 3.8912696 16.8436515 3.8912696 18.5075059 0.169118423 17.6933002 0.169118423 16.652981 2.60695894"></polyline>
                    <g id="Fill-1">
                        <use fill="#F48027" fill-rule="evenodd" xlink:href="#path-1"></use>
                        <use fill="black" fill-opacity="1" filter="url(#filter-2)" xlink:href="#path-1"></use>
                    </g>
                    <path d="M7.5900615,1.9855183 C7.5900615,3.05309767 8.4800759,3.87983015 9.62344248,3.87983015 C9.94735259,3.87983015 10.2243335,3.82015948 10.5656369,3.66773648 L10.5656369,2.83512969 C10.264371,3.11833348 9.99887629,3.2318005 9.65790101,3.2318005 C8.9014544,3.2318005 8.36390145,2.71486083 8.36390145,1.97995316 C8.36390145,1.28431066 8.9181914,0.734289314 9.62344248,0.734289314 C9.98115476,0.734289314 10.2528848,0.854558174 10.5656369,1.14239959 L10.5656369,0.309792797 C10.236476,0.152113828 9.96408959,0.0874963688 9.64116401,0.0874963688 C8.50272007,0.0874963688 7.5900615,0.931233437 7.5900615,1.9855183" id="c" fill="#231F20"></path>
                    <path d="M6.24486643,1.56102179 C5.79362387,1.40396117 5.66136878,1.30007855 5.66136878,1.10437113 C5.66136878,0.876200385 5.89699944,0.702135171 6.2215659,0.702135171 C6.44669491,0.702135171 6.63145823,0.789322365 6.82836407,0.995232548 L7.22053487,0.511992886 C6.89695294,0.244556988 6.51036113,0.108829406 6.08832628,0.108829406 C5.40736025,0.108829406 4.88720065,0.554968134 4.88720065,1.14796473 C4.88720065,1.64913651 5.12972301,1.9045146 5.83431775,2.14381562 C6.12902016,2.24151475 6.27899677,2.30675056 6.35414917,2.35065333 C6.50445396,2.44371484 6.57993453,2.5735681 6.57993453,2.72568193 C6.57993453,3.02032518 6.33117682,3.23736564 5.99578054,3.23736564 C5.63741191,3.23736564 5.34894485,3.06948392 5.17566771,2.75350763 L4.69127934,3.19500874 C5.03717727,3.67330162 5.45297677,3.88570446 6.02531641,3.88570446 C6.80506354,3.88570446 7.35344631,3.39535379 7.35344631,2.69383696 C7.35344631,2.11722662 7.10009413,1.85566504 6.24486643,1.56102179" id="s" fill="#231F20"></path>
                    <polygon id="i" fill="#231F20" points="3.65686732 0.169118423 4.40773493 0.169118423 4.40773493 3.79820809 3.65686732 3.79820809"></polygon>
                    <path d="M1.24247353,0.169118423 L0.138488114,0.169118423 L0.138488114,3.79820809 L1.23722271,3.79820809 C1.81973582,3.79820809 2.2414425,3.66773648 2.6112973,3.37989506 C3.04974098,3.03609308 3.30998486,2.5191534 3.30998486,1.9855183 C3.30998486,0.914228842 2.46033616,0.169118423 1.24247353,0.169118423 L1.24247353,0.169118423 Z M2.12100176,2.89480036 C1.88340204,3.09669127 1.57786981,3.18356929 1.09216874,3.18356929 L0.890012075,3.18356929 L0.890012075,0.783757225 L1.09216874,0.783757225 C1.57786981,0.783757225 1.87158769,0.86537928 2.12100176,1.07716378 C2.38091747,1.29513176 2.53548855,1.63213191 2.53548855,1.97995316 C2.53548855,2.32901112 2.38091747,2.67806907 2.12100176,2.89480036 L2.12100176,2.89480036 Z" id="d" fill="#231F20"></path>
                </g>
            </g>
        </g>
    </g>
</svg>