<svg height="12" viewBox="0 0 42 12" width="42" xmlns="http://www.w3.org/2000/svg"><g fill="none" transform="translate(.606253 .502408)"><path d="m21.7427871.01359774v11.07007166h6.143157v-2.47176707h-3.5429668v-2.18168192h3.5429668v-2.37356115h-3.5429668v-1.57582704h3.5429668v-2.46723448zm6.143157 4.04306152 3.1244586 3.51274963-3.1244586 3.51426051h3.2000016l1.5184144-1.72238048 1.5365446 1.72238048h3.3102944l-3.1546758-3.52483653 3.1123717-3.50217361h-3.1818712l-1.4942406 1.70425014-1.5486316-1.70425014zm12.1911298 4.62474263c-.7070825 0-1.3325786.52880102-1.3325786 1.31444825 0 .78564726.6254961 1.31444826 1.3325786 1.31444826.7085934 0 1.3325786-.528801 1.3325786-1.31444826 0-.78564723-.6239852-1.31444825-1.3325786-1.31444825zm0 .21000955c.6239852 0 1.0757324.46836662 1.0757324 1.10594956 0 .6360721-.4517472 1.1044387-1.0757324 1.1044387-.6224743 0-1.0757324-.4683666-1.0757324-1.1044387 0-.63758294.4532581-1.10594956 1.0757324-1.10594956zm-.5167141.29008513v1.59395733h.2387158v-.7206802h.2266291c.1556185 0 .226629.0453258.2674222.1797923.0498584.1767707.0407932.3928236.1042493.5408879h.2734657c-.0498584-.0574126-.0770539-.3067046-.0997168-.4472145-.0287063-.2190748-.075543-.33994356-.2084986-.3610956v-.00604344c.1556185-.01964118.2734656-.1661946.2734656-.34296523 0-.29008513-.1556186-.43663856-.4940512-.43663856zm.2387158.21454213h.2855526c.226629 0 .291596.09367332.291596.22058557 0 .1057602-.064967.22662901-.291596.22662901h-.2855526z" fill="#f47920"/><path d="m17.5773459 9.39754956c-.9548635 0-1.5486315-.89140743-1.5486315-1.81907551 0-.99263506.5167141-1.94900947 1.5486315-1.94900947 1.0711998 0 1.4972623.95486355 1.4972623 1.94900947 0 .94277668-.4517471 1.81907551-1.4972623 1.81907551zm-9.20869204-2.93409023c.16317289-.70254993.70859337-1.16336225 1.38999125-1.16336225.74938659 0 1.26610069.44570372 1.40358899 1.16336225zm10.78149734-6.44835073v4.52955845h-.0287063c-.5741268-.66024584-1.2902745-.88838571-2.1227584-.88838571-1.7042501 0-2.9869703 1.15882966-3.4372066 2.6893309-.5136924-1.68763068-1.8387167-2.72105896-3.80434565-2.72105896-1.59546822 0-2.8555255.71614767-3.51274963 1.88253163v-1.45042565h-3.29820751v-1.57431618h3.59886866v-2.46723448h-6.53900233v11.0685608h2.94013367v-4.65344899h2.93106852c-.08762989.34145437-.13446655.7070825-.13446655 1.09386268 0 2.30859417 1.76317369 3.92823611 4.01435517 3.92823611 1.89310765 0 3.14107805-.8883857 3.79981305-2.50953852h-2.5186037c-.3414544.48649694-.5998115.63153951-1.28120935.63153951-.79017981 0-1.47157769-.68895219-1.47157769-1.50632748h5.13088074c.2220964 1.83418411 1.6513701 3.41605459 3.6109556 3.41605459.8460816 0 1.6196419-.4154865 2.094052-1.1180364h.0287063v.7161476h2.591125v-11.0670499z" fill="#4d148c"/></g></svg>