<?xml version="1.0" encoding="UTF-8"?>
<svg width="200px" height="47px" viewBox="0 0 200 47" version="1.1" xmlns="http://www.w3.org/2000/svg" xmlns:xlink="http://www.w3.org/1999/xlink">
    <!-- Generator: sketchtool 48.1 (47250) - http://www.bohemiancoding.com/sketch -->
    <title>4EAB8267-35E2-4A7A-8770-F634FFD3F4C8</title>
    <desc>Created with sketchtool.</desc>
    <defs>
        <path d="M6.75829869,0 C6.75829869,0 21.8093867,9.74328745 6.72681266,22.8978199 C6.72681266,22.8978199 -8.42948473,8.34688438 6.75829869,0" id="path-1"></path>
    </defs>
    <g id="welcome-email" stroke="none" stroke-width="1" fill="none" fill-rule="evenodd" transform="translate(-160.000000, -16.000000)">
        <g id="ibf-logo" transform="translate(160.000000, 16.000000)">
            <g id="ibf-logo-copy-3">
                <g id="Group-5">
                    <g id="icon">
                        <path d="M35.6982342,0 L10.3407365,0 C4.62998582,0 0,4.62821362 0,10.3371619 L0,35.6841866 C0,41.3935184 4.62998582,46.0213485 10.3407365,46.0213485 L35.6982342,46.0213485 C41.4093686,46.0213485 46.0389707,41.3935184 46.0389707,35.6841866 L46.0389707,10.3371619 C46.0389707,4.62821362 41.4093686,0 35.6982342,0" id="Fill-1-Copy-8" fill="#FFFFFF"></path>
                        <g id="Group-8" transform="translate(2.113729, 11.141449)">
                            <g id="Group-7" transform="translate(32.046705, 13.887086) rotate(-345.000000) translate(-32.046705, -13.887086) translate(24.546705, 3.387086)">
                                <path d="M0.937694117,20.3259996 C0.937694117,20.3259996 4.05657658,5.6338847 14.9353319,3.81732084 C14.9353319,3.81732084 13.5836826,20.3459501 0.937694117,20.3259996" id="Fill-5-Copy-9" fill="#16569E"></path>
                                <path d="M0.0250319556,20.4657411 C0.0250319556,20.4657411 -0.838135901,4.44798703 10.3660159,0.318590723 C10.3660159,0.318590723 13.8657448,13.1029395 0.0250319556,20.4657411" id="Fill-7-Copy-6" fill="#FFFFFF"></path>
                                <path d="M0.0221503328,20.2872974 C0.0221503328,20.2872974 -0.679352369,4.26954332 8.4263421,0.14014701 C8.4263421,0.14014701 11.2705968,12.9244958 0.0221503328,20.2872974" id="Fill-7-Copy-9" fill="#4578B1"></path>
                            </g>
                            <g id="Group-7-Copy" transform="translate(10.035713, 13.887086) scale(-1, 1) rotate(-345.000000) translate(-10.035713, -13.887086) translate(2.535713, 3.387086)">
                                <path d="M0.937694117,20.3259996 C0.937694117,20.3259996 4.05657658,5.6338847 14.9353319,3.81732084 C14.9353319,3.81732084 13.5836826,20.3459501 0.937694117,20.3259996" id="Fill-5-Copy-9" fill="#16569E"></path>
                                <path d="M0.0250319556,20.4657411 C0.0250319556,20.4657411 -0.838135901,4.44798703 10.3660159,0.318590723 C10.3660159,0.318590723 13.8657448,13.1029395 0.0250319556,20.4657411" id="Fill-7-Copy-6" fill="#FFFFFF"></path>
                                <path d="M0.0221503328,20.2872974 C0.0221503328,20.2872974 -0.679352369,4.26954332 8.4263421,0.14014701 C8.4263421,0.14014701 11.2705968,12.9244958 0.0221503328,20.2872974" id="Fill-7-Copy-9" fill="#4578B1"></path>
                            </g>
                            <path d="M20.9024967,1.29614908 C20.9024967,1.29614908 37.9187756,10.3872766 20.8668996,22.66132 C20.8668996,22.66132 3.73167442,9.0843408 20.9024967,1.29614908" id="Fill-13-Copy-9" fill="#FFFFFF"></path>
                            <path d="M20.9641816,1.29614908 C20.9641816,1.29614908 34.5387267,10.0835999 20.9357844,21.9476455 C20.9357844,21.9476455 7.26635111,8.82418684 20.9641816,1.29614908" id="Fill-13-Copy-10" fill="#D8232D"></path>
                            <g id="red" transform="translate(14.200038, 0.167840)">
                                <mask id="mask-2" fill="white">
                                    <use xlink:href="#path-1"></use>
                                </mask>
                                <g id="Mask"></g>
                                <g id="Group-6" mask="url(#mask-2)" stroke="#FFFFFF" stroke-width="0.57628185">
                                    <g transform="translate(-51.166501, -23.987387)">
                                        <ellipse id="Oval" cx="57.4752134" cy="22.8061346" rx="11.4697228" ry="5.76173662"></ellipse>
                                        <ellipse id="Oval-Copy" cx="57.4752134" cy="47.7073336" rx="11.4697228" ry="5.76173662"></ellipse>
                                        <ellipse id="Oval-Copy-2" cx="57.8975727" cy="16.5821565" rx="57.8632306" ry="16.4449566"></ellipse>
                                        <ellipse id="Oval-Copy-3" cx="57.8975727" cy="53.6912393" rx="43.8261166" ry="16.4449566"></ellipse>
                                        <path d="M57.5989796,28.6641364 C58.9072521,28.666082 60.2968573,28.3782007 60.3079735,28.4022889 C61.7188677,31.4596225 62.8036828,36.1934999 60.4197076,41.8905769 C60.3338771,42.0956894 59.0420652,41.8307309 57.9026813,41.8357392 C56.7843812,41.8406547 55.8184307,42.1201327 55.7044098,41.8357395 C54.2478183,38.2026815 52.9434137,33.020652 55.0145839,28.4999286 C55.0740505,28.3701315 56.2958111,28.6621985 57.5989796,28.6641364 Z" id="center" stroke-linecap="round"></path>
                                        <path d="M57.8454245,21.6672625 L57.8454245,48.2825445" id="Path-2"></path>
                                    </g>
                                </g>
                            </g>
                        </g>
                    </g>
                    <text id="iBuyFlowers" font-family="Aleo-Bold, Aleo" font-size="23.051274" font-weight="bold" letter-spacing="-0.14185399">
                        <tspan x="61.8746053" y="30.491664" fill="#D8232D">iBuy</tspan>
                        <tspan x="111.674223" y="30.491664" fill="#16569E">Flowers</tspan>
                    </text>
                </g>
            </g>
            <text id="®" font-family="HelveticaNeue-Bold, Helvetica Neue" font-size="4.69562989" font-weight="bold" fill="#16569E">
                <tspan x="195.722391" y="20.7943914">®</tspan>
            </text>
        </g>
    </g>
</svg>