<?xml version="1.0" encoding="UTF-8"?>
<svg width="65px" height="64px" viewBox="0 0 65 64" version="1.1" xmlns="http://www.w3.org/2000/svg" xmlns:xlink="http://www.w3.org/1999/xlink">
    <!-- Generator: sketchtool 49 (51002) - http://www.bohemiancoding.com/sketch -->
    <title>2F9D952B-6443-482A-B1FA-71F311137218</title>
    <desc>Created with sketchtool.</desc>
    <defs></defs>
    <g id="Page-1" stroke="none" stroke-width="1" fill="none" fill-rule="evenodd">
        <g id="home" transform="translate(-658.000000, -586.000000)">
            <g id="Group-Copy-6" transform="translate(658.000000, 586.000000)">
                <g id="promo-copy-2">
                    <polygon id="Path-3" fill="#F5A623" points="0.958925387 0.531324393 0.958925387 64 64.504622 0.454303386"></polygon>
                    <path d="M1.7289748,23.5709387 L3.4369748,23.5709387 C3.68897606,23.5709387 3.9316403,23.5522722 4.1649748,23.5149387 C4.3983093,23.4776052 4.60364058,23.4052725 4.7809748,23.2979387 C4.95830902,23.1906048 5.10064093,23.0389397 5.2079748,22.8429387 C5.31530867,22.6469377 5.3689748,22.3902736 5.3689748,22.0729387 C5.3689748,21.7556038 5.31530867,21.4989397 5.2079748,21.3029387 C5.10064093,21.1069377 4.95830902,20.9552725 4.7809748,20.8479387 C4.60364058,20.7406048 4.3983093,20.6682722 4.1649748,20.6309387 C3.9316403,20.5936052 3.68897606,20.5749387 3.4369748,20.5749387 L1.7289748,20.5749387 L1.7289748,23.5709387 Z M-0.4690252,18.8669387 L4.0389748,18.8669387 C4.66431126,18.8669387 5.19630594,18.9579378 5.6349748,19.1399387 C6.07364366,19.3219396 6.43064009,19.5622705 6.7059748,19.8609387 C6.98130951,20.1596068 7.18197417,20.5002701 7.3079748,20.8829387 C7.43397543,21.2656073 7.4969748,21.66227 7.4969748,22.0729387 C7.4969748,22.474274 7.43397543,22.8686034 7.3079748,23.2559387 C7.18197417,23.6432739 6.98130951,23.9862705 6.7059748,24.2849387 C6.43064009,24.5836068 6.07364366,24.8239378 5.6349748,25.0059387 C5.19630594,25.1879396 4.66431126,25.2789387 4.0389748,25.2789387 L1.7289748,25.2789387 L1.7289748,28.8629387 L-0.4690252,28.8629387 L-0.4690252,18.8669387 Z M11.0669748,23.3889387 L13.4749748,23.3889387 C13.9789773,23.3889387 14.3569735,23.2769398 14.6089748,23.0529387 C14.8609761,22.8289376 14.9869748,22.4649412 14.9869748,21.9609387 C14.9869748,21.4756029 14.8609761,21.1232731 14.6089748,20.9039387 C14.3569735,20.6846042 13.9789773,20.5749387 13.4749748,20.5749387 L11.0669748,20.5749387 L11.0669748,23.3889387 Z M8.8689748,18.8669387 L14.2589748,18.8669387 C14.706977,18.8669387 15.1106397,18.9392713 15.4699748,19.0839387 C15.8293099,19.2286061 16.1373068,19.4269374 16.3939748,19.6789387 C16.6506427,19.9309399 16.8466408,20.2226037 16.9819748,20.5539387 C17.1173088,20.8852737 17.1849748,21.2422701 17.1849748,21.6249387 C17.1849748,22.2129416 17.0613094,22.7216032 16.8139748,23.1509387 C16.5666402,23.5802742 16.1629776,23.9069376 15.6029748,24.1309387 L15.6029748,24.1589387 C15.8736428,24.2336057 16.0976406,24.3479379 16.2749748,24.5019387 C16.452309,24.6559394 16.5969742,24.8379376 16.7089748,25.0479387 C16.8209754,25.2579397 16.9026412,25.4889374 16.9539748,25.7409387 C17.0053084,25.9929399 17.040308,26.2449374 17.0589748,26.4969387 C17.0683082,26.6556061 17.0776414,26.8422709 17.0869748,27.0569387 C17.0963082,27.2716064 17.1126413,27.4909376 17.1359748,27.7149387 C17.1593082,27.9389398 17.1966412,28.151271 17.2479748,28.3519387 C17.2993084,28.5526063 17.3763076,28.722938 17.4789748,28.8629387 L15.2809748,28.8629387 C15.1596409,28.5456038 15.0849749,28.1676075 15.0569748,27.7289387 C15.0289747,27.2902698 14.9869751,26.870274 14.9309748,26.4689387 C14.8563078,25.9462694 14.6976427,25.5636066 14.4549748,25.3209387 C14.2123069,25.0782708 13.8156442,24.9569387 13.2649748,24.9569387 L11.0669748,24.9569387 L11.0669748,28.8629387 L8.8689748,28.8629387 L8.8689748,18.8669387 Z M20.7409748,23.9069387 C20.7409748,24.3269408 20.7899743,24.73527 20.8879748,25.1319387 C20.9859753,25.5286073 21.1423071,25.8856038 21.3569748,26.2029387 C21.5716425,26.5202736 21.8516397,26.7746044 22.1969748,26.9659387 C22.5423099,27.157273 22.9623057,27.2529387 23.4569748,27.2529387 C23.9516439,27.2529387 24.3716397,27.157273 24.7169748,26.9659387 C25.0623099,26.7746044 25.3423071,26.5202736 25.5569748,26.2029387 C25.7716425,25.8856038 25.9279743,25.5286073 26.0259748,25.1319387 C26.1239753,24.73527 26.1729748,24.3269408 26.1729748,23.9069387 C26.1729748,23.4682698 26.1239753,23.0436074 26.0259748,22.6329387 C25.9279743,22.22227 25.7716425,21.8559403 25.5569748,21.5339387 C25.3423071,21.2119371 25.0623099,20.955273 24.7169748,20.7639387 C24.3716397,20.5726044 23.9516439,20.4769387 23.4569748,20.4769387 C22.9623057,20.4769387 22.5423099,20.5726044 22.1969748,20.7639387 C21.8516397,20.955273 21.5716425,21.2119371 21.3569748,21.5339387 C21.1423071,21.8559403 20.9859753,22.22227 20.8879748,22.6329387 C20.7899743,23.0436074 20.7409748,23.4682698 20.7409748,23.9069387 Z M18.5429748,23.9069387 C18.5429748,23.1602683 18.6549737,22.4672752 18.8789748,21.8279387 C19.1029759,21.1886021 19.4249727,20.6309411 19.8449748,20.1549387 C20.2649769,19.6789363 20.7806384,19.3056067 21.3919748,19.0349387 C22.0033112,18.7642707 22.6916376,18.6289387 23.4569748,18.6289387 C24.2316453,18.6289387 24.9223051,18.7642707 25.5289748,19.0349387 C26.1356445,19.3056067 26.6489727,19.6789363 27.0689748,20.1549387 C27.4889769,20.6309411 27.8109737,21.1886021 28.0349748,21.8279387 C28.2589759,22.4672752 28.3709748,23.1602683 28.3709748,23.9069387 C28.3709748,24.6349423 28.2589759,25.3139355 28.0349748,25.9439387 C27.8109737,26.5739418 27.4889769,27.1222697 27.0689748,27.5889387 C26.6489727,28.0556077 26.1356445,28.4219373 25.5289748,28.6879387 C24.9223051,28.95394 24.2316453,29.0869387 23.4569748,29.0869387 C22.6916376,29.0869387 22.0033112,28.95394 21.3919748,28.6879387 C20.7806384,28.4219373 20.2649769,28.0556077 19.8449748,27.5889387 C19.4249727,27.1222697 19.1029759,26.5739418 18.8789748,25.9439387 C18.6549737,25.3139355 18.5429748,24.6349423 18.5429748,23.9069387 Z M29.8689748,18.8669387 L32.9629748,18.8669387 L35.3009748,25.7409387 L35.3289748,25.7409387 L37.5409748,18.8669387 L40.6349748,18.8669387 L40.6349748,28.8629387 L38.5769748,28.8629387 L38.5769748,21.7789387 L38.5489748,21.7789387 L36.0989748,28.8629387 L34.4049748,28.8629387 L31.9549748,21.8489387 L31.9269748,21.8489387 L31.9269748,28.8629387 L29.8689748,28.8629387 L29.8689748,18.8669387 Z M44.3309748,23.9069387 C44.3309748,24.3269408 44.3799743,24.73527 44.4779748,25.1319387 C44.5759753,25.5286073 44.7323071,25.8856038 44.9469748,26.2029387 C45.1616425,26.5202736 45.4416397,26.7746044 45.7869748,26.9659387 C46.1323099,27.157273 46.5523057,27.2529387 47.0469748,27.2529387 C47.5416439,27.2529387 47.9616397,27.157273 48.3069748,26.9659387 C48.6523099,26.7746044 48.9323071,26.5202736 49.1469748,26.2029387 C49.3616425,25.8856038 49.5179743,25.5286073 49.6159748,25.1319387 C49.7139753,24.73527 49.7629748,24.3269408 49.7629748,23.9069387 C49.7629748,23.4682698 49.7139753,23.0436074 49.6159748,22.6329387 C49.5179743,22.22227 49.3616425,21.8559403 49.1469748,21.5339387 C48.9323071,21.2119371 48.6523099,20.955273 48.3069748,20.7639387 C47.9616397,20.5726044 47.5416439,20.4769387 47.0469748,20.4769387 C46.5523057,20.4769387 46.1323099,20.5726044 45.7869748,20.7639387 C45.4416397,20.955273 45.1616425,21.2119371 44.9469748,21.5339387 C44.7323071,21.8559403 44.5759753,22.22227 44.4779748,22.6329387 C44.3799743,23.0436074 44.3309748,23.4682698 44.3309748,23.9069387 Z M42.1329748,23.9069387 C42.1329748,23.1602683 42.2449737,22.4672752 42.4689748,21.8279387 C42.6929759,21.1886021 43.0149727,20.6309411 43.4349748,20.1549387 C43.8549769,19.6789363 44.3706384,19.3056067 44.9819748,19.0349387 C45.5933112,18.7642707 46.2816376,18.6289387 47.0469748,18.6289387 C47.8216453,18.6289387 48.5123051,18.7642707 49.1189748,19.0349387 C49.7256445,19.3056067 50.2389727,19.6789363 50.6589748,20.1549387 C51.0789769,20.6309411 51.4009737,21.1886021 51.6249748,21.8279387 C51.8489759,22.4672752 51.9609748,23.1602683 51.9609748,23.9069387 C51.9609748,24.6349423 51.8489759,25.3139355 51.6249748,25.9439387 C51.4009737,26.5739418 51.0789769,27.1222697 50.6589748,27.5889387 C50.2389727,28.0556077 49.7256445,28.4219373 49.1189748,28.6879387 C48.5123051,28.95394 47.8216453,29.0869387 47.0469748,29.0869387 C46.2816376,29.0869387 45.5933112,28.95394 44.9819748,28.6879387 C44.3706384,28.4219373 43.8549769,28.0556077 43.4349748,27.5889387 C43.0149727,27.1222697 42.6929759,26.5739418 42.4689748,25.9439387 C42.2449737,25.3139355 42.1329748,24.6349423 42.1329748,23.9069387 Z" id="PROMO" fill="#FFFFFF" transform="translate(25.745975, 23.857939) rotate(-45.000000) translate(-25.745975, -23.857939) "></path>
                </g>
            </g>
        </g>
    </g>
</svg>